<svg xmlns="http://www.w3.org/2000/svg" viewBox="0 0 100 100">
  <rect width="100" height="100" fill="#1a1a1a"/>
  <!-- Beard silhouette -->
  <path d="M50 12 C25 12 18 32 18 48 C18 75 33 92 50 92 C67 92 82 75 82 48 C82 32 75 12 50 12" fill="#2a2a2a"/>
  <!-- Mustache -->
  <path d="M28 38 Q40 32 50 36 Q60 32 72 38 Q60 44 50 40 Q40 44 28 38" fill="#1a1a1a"/>
  <!-- Scissors -->
  <g fill="#c9a850">
    <!-- Handle left -->
    <ellipse cx="38" cy="72" rx="7" ry="5" transform="rotate(-25 38 72)"/>
    <ellipse cx="38" cy="72" rx="4" ry="2.5" transform="rotate(-25 38 72)" fill="#1a1a1a"/>
    <!-- Handle right -->
    <ellipse cx="62" cy="72" rx="7" ry="5" transform="rotate(25 62 72)"/>
    <ellipse cx="62" cy="72" rx="4" ry="2.5" transform="rotate(25 62 72)" fill="#1a1a1a"/>
    <!-- Blades -->
    <path d="M42 68 L54 48 L58 50 L46 70 Z"/>
    <path d="M58 68 L46 48 L42 50 L54 70 Z"/>
    <!-- Pivot -->
    <circle cx="50" cy="58" r="4"/>
    <circle cx="50" cy="58" r="2" fill="#1a1a1a"/>
  </g>
</svg>
